<svg xmlns="http://www.w3.org/2000/svg" viewBox="0 0 24 26" shapeRendering="crispEdges">
  <!-- Cloud body (white) -->
  <rect x="6" y="2" width="2" height="2" fill="#ffffff"/>
  <rect x="8" y="2" width="2" height="2" fill="#ffffff"/>
  <rect x="4" y="4" width="2" height="2" fill="#ffffff"/>
  <rect x="6" y="4" width="2" height="2" fill="#ffffff"/>
  <rect x="8" y="4" width="2" height="2" fill="#ffffff"/>
  <rect x="10" y="4" width="2" height="2" fill="#ffffff"/>
  <rect x="14" y="0" width="2" height="2" fill="#ffffff"/>
  <rect x="16" y="0" width="2" height="2" fill="#ffffff"/>
  <rect x="12" y="2" width="2" height="2" fill="#ffffff"/>
  <rect x="14" y="2" width="2" height="2" fill="#ffffff"/>
  <rect x="16" y="2" width="2" height="2" fill="#ffffff"/>
  <rect x="18" y="2" width="2" height="2" fill="#ffffff"/>
  <rect x="2" y="6" width="20" height="2" fill="#ffffff"/>
  <rect x="0" y="8" width="24" height="2" fill="#ffffff"/>
  <rect x="0" y="10" width="24" height="2" fill="#ffffff"/>
  <rect x="0" y="12" width="24" height="2" fill="#ffffff"/>
  <!-- Rain row 1 (blue) -->
  <rect x="2" y="16" width="2" height="2" fill="#89CFF0"/>
  <rect x="8" y="16" width="2" height="2" fill="#89CFF0"/>
  <rect x="14" y="16" width="2" height="2" fill="#89CFF0"/>
  <rect x="20" y="16" width="2" height="2" fill="#89CFF0"/>
  <!-- Rain row 2 -->
  <rect x="4" y="20" width="2" height="2" fill="#89CFF0"/>
  <rect x="10" y="20" width="2" height="2" fill="#89CFF0"/>
  <rect x="16" y="20" width="2" height="2" fill="#89CFF0"/>
  <rect x="22" y="20" width="2" height="2" fill="#89CFF0"/>
  <!-- Rain row 3 -->
  <rect x="2" y="24" width="2" height="2" fill="#89CFF0"/>
  <rect x="8" y="24" width="2" height="2" fill="#89CFF0"/>
  <rect x="14" y="24" width="2" height="2" fill="#89CFF0"/>
  <rect x="20" y="24" width="2" height="2" fill="#89CFF0"/>
</svg>
